<?xml version="1.0" standalone="no"?><!DOCTYPE svg PUBLIC "-//W3C//DTD SVG 1.1//EN" "http://www.w3.org/Graphics/SVG/1.1/DTD/svg11.dtd"><svg t="1602339304073" class="icon" viewBox="0 0 1024 1024" version="1.1" xmlns="http://www.w3.org/2000/svg" p-id="7206" xmlns:xlink="http://www.w3.org/1999/xlink" width="200" height="200"><defs><style type="text/css"></style></defs><path d="M511.996 116.492c-218.43 0-395.504 177.069-395.504 395.499 0 218.447 177.075 395.516 395.504 395.516 218.437 0 395.513-177.069 395.513-395.516-0.007-218.428-177.075-395.499-395.513-395.499v0 0zM675.147 603.348c0 11.358-10.11 22.945-27.697 22.945l-96.848-0.302v79.257c0 17.583-16.377 35.471-33.969 35.471-17.586 0-33.965-17.887-33.965-35.471v-79.257l-96.782 0.302c-17.577 0-27.763-7.015-27.763-34.268 0-11.317 5.058-22.644 22.644-22.644h101.901v-56.612h-101.9c-17.579 0-22.644-13.18-22.644-22.644 0-17.6 5.058-33.968 22.644-33.968h79.257l-88.982-105.152c-11.414-13.35-9.862-33.615 3.497-45.046v0c13.357-11.422 33.611-9.87 45.041 3.497l97.125 113.227 97.129-113.227c11.439-13.366 31.691-14.917 45.042-3.497v0c13.366 11.431 14.919 31.697 3.488 45.046l-89.115 105.15h79.257c17.586 0 22.644 13.991 22.644 22.644 0 17.573-5.058 33.968-22.644 33.968h-101.902v56.612h101.901c0.001 0.001 22.645-1.709 22.645 33.968z" p-id="7207"></path></svg>