<?xml version="1.0" standalone="no"?><!DOCTYPE svg PUBLIC "-//W3C//DTD SVG 1.1//EN" "http://www.w3.org/Graphics/SVG/1.1/DTD/svg11.dtd"><svg t="1601344451172" class="icon" viewBox="0 0 1024 1024" version="1.1" xmlns="http://www.w3.org/2000/svg" p-id="3264" xmlns:xlink="http://www.w3.org/1999/xlink" width="200" height="200"><defs><style type="text/css"></style></defs><path d="M926.293333 481.706667l-213.333333-213.333334A42.666667 42.666667 0 0 0 682.666667 256H213.333333a128 128 0 0 0-128 128v256a128 128 0 0 0 128 128h469.333334a42.666667 42.666667 0 0 0 30.293333-12.373333l213.333333-213.333334a42.666667 42.666667 0 0 0 0-60.586666zM665.173333 682.666667H213.333333a42.666667 42.666667 0 0 1-42.666666-42.666667V384a42.666667 42.666667 0 0 1 42.666666-42.666667h451.84l170.666667 170.666667z" p-id="3265"></path></svg>